<svg width="187" height="187" viewBox="0 0 187 187" fill="none" xmlns="http://www.w3.org/2000/svg">
<mask id="mask0_201_432" style="mask-type:luminance" maskUnits="userSpaceOnUse" x="4" y="4" width="178" height="178">
<path d="M4.60303 4.60645H181.926V181.93H4.60303V4.60645Z" fill="white"/>
</mask>
<g mask="url(#mask0_201_432)">
<path d="M178.581 85.3728L101.162 7.95478C101.03 7.82264 100.895 7.69341 100.757 7.56806C100.618 7.44272 100.477 7.32029 100.332 7.20175C100.188 7.08321 100.041 6.96855 99.8905 6.85681C99.7404 6.74556 99.5879 6.63819 99.4324 6.53422C99.2769 6.43026 99.1191 6.33018 98.9587 6.23447C98.7989 6.13827 98.6361 6.04597 98.4714 5.95803C98.3067 5.86961 98.1396 5.78556 97.9706 5.70589C97.802 5.62573 97.631 5.55042 97.4585 5.47852C97.2855 5.4071 97.1116 5.34006 96.9357 5.2769C96.7594 5.21374 96.5821 5.15545 96.4033 5.10103C96.2245 5.04662 96.0447 4.99707 95.863 4.9514C95.6818 4.90622 95.4996 4.86541 95.3165 4.82848C95.1333 4.79205 94.9492 4.76047 94.7641 4.73278C94.5795 4.70557 94.3939 4.68273 94.2078 4.66427C94.0218 4.64581 93.8357 4.63221 93.6491 4.62298C93.4626 4.61375 93.2755 4.60938 93.0885 4.60938C92.9019 4.60938 92.7149 4.61375 92.5283 4.62298C92.3418 4.63221 92.1557 4.64581 91.9696 4.66427C91.7835 4.68273 91.598 4.70557 91.4133 4.73278C91.2282 4.76047 91.0441 4.79205 90.861 4.82848C90.6778 4.86541 90.4956 4.90622 90.3144 4.9514C90.1327 4.99707 89.9529 5.04662 89.7742 5.10103C89.5954 5.15545 89.418 5.21374 89.2417 5.2769C89.0658 5.34006 88.8914 5.4071 88.7189 5.47852C88.5465 5.55042 88.3755 5.62573 88.2069 5.70589C88.0378 5.78556 87.8707 5.86961 87.706 5.95803C87.5413 6.04597 87.3785 6.13827 87.2187 6.23447C87.0584 6.33018 86.9005 6.43026 86.745 6.53422C86.5896 6.63819 86.437 6.74556 86.2869 6.85681C86.1368 6.96855 85.9896 7.08321 85.8453 7.20175C85.7005 7.32029 85.5591 7.44272 85.4207 7.56806C85.2822 7.69341 85.1471 7.82264 85.015 7.95478L68.9453 24.0245L89.3374 44.4166C94.0805 42.7541 99.5111 43.8905 103.29 47.6697C103.514 47.8932 103.729 48.1249 103.937 48.364C104.144 48.6025 104.343 48.8488 104.533 49.1015C104.723 49.3546 104.904 49.6135 105.076 49.8793C105.248 50.1445 105.411 50.4156 105.564 50.6925C105.717 50.9695 105.86 51.2512 105.993 51.5384C106.127 51.825 106.25 52.1165 106.363 52.4119C106.475 52.7073 106.578 53.0065 106.67 53.3092C106.763 53.6119 106.844 53.917 106.915 54.2255C106.985 54.534 107.045 54.8444 107.094 55.1568C107.143 55.4692 107.181 55.7835 107.208 56.0983C107.235 56.4136 107.251 56.7294 107.257 57.0457C107.262 57.362 107.255 57.6783 107.238 57.994C107.221 58.3098 107.193 58.6251 107.154 58.939C107.115 59.2528 107.065 59.5647 107.004 59.8752C106.943 60.1856 106.871 60.4936 106.789 60.7992C106.706 61.1048 106.613 61.407 106.51 61.7058L126.165 81.3609C130.919 79.7207 136.405 80.7789 140.201 84.5858C140.359 84.7432 140.512 84.904 140.662 85.0692C140.811 85.2339 140.956 85.402 141.097 85.574C141.239 85.746 141.376 85.9213 141.508 86.1001C141.641 86.2789 141.769 86.4606 141.893 86.6457C142.016 86.8303 142.135 87.0183 142.25 87.2093C142.364 87.4002 142.474 87.5936 142.579 87.7898C142.684 87.9861 142.784 88.1843 142.879 88.3855C142.974 88.5866 143.064 88.7902 143.15 88.9957C143.235 89.2012 143.315 89.4086 143.39 89.618C143.465 89.8274 143.534 90.0387 143.599 90.2515C143.664 90.4643 143.723 90.6791 143.777 90.8948C143.831 91.1105 143.88 91.3276 143.924 91.5458C143.967 91.7639 144.005 91.983 144.038 92.2031C144.07 92.4232 144.098 92.6442 144.12 92.8653C144.141 93.0868 144.158 93.3088 144.169 93.5309C144.18 93.7529 144.185 93.9754 144.185 94.1979C144.185 94.4204 144.18 94.6429 144.169 94.8649C144.158 95.0875 144.142 95.309 144.12 95.5305C144.098 95.7521 144.071 95.9726 144.038 96.1927C144.006 96.4128 143.968 96.6319 143.924 96.85C143.881 97.0687 143.832 97.2853 143.778 97.501C143.724 97.7172 143.665 97.9315 143.6 98.1443C143.535 98.3571 143.466 98.5684 143.391 98.7778C143.316 98.9877 143.236 99.1951 143.151 99.4006C143.066 99.6061 142.975 99.8092 142.88 100.01C142.785 100.211 142.685 100.41 142.58 100.606C142.475 100.803 142.365 100.996 142.251 101.187C142.137 101.378 142.018 101.566 141.894 101.751C141.77 101.936 141.643 102.118 141.51 102.296C141.377 102.475 141.24 102.65 141.099 102.822C140.958 102.994 140.813 103.163 140.663 103.328C140.514 103.492 140.36 103.654 140.203 103.811C140.046 103.968 139.885 104.121 139.72 104.271C139.555 104.42 139.386 104.565 139.214 104.706C139.042 104.848 138.867 104.985 138.688 105.117C138.509 105.25 138.328 105.378 138.143 105.501C137.958 105.625 137.77 105.744 137.579 105.858C137.388 105.972 137.194 106.082 136.998 106.187C136.802 106.292 136.604 106.392 136.402 106.486C136.201 106.582 135.998 106.672 135.792 106.757C135.587 106.842 135.379 106.922 135.169 106.997C134.96 107.072 134.749 107.141 134.536 107.206C134.323 107.271 134.108 107.33 133.893 107.384C133.677 107.438 133.46 107.486 133.242 107.53C133.023 107.573 132.804 107.611 132.584 107.644C132.364 107.676 132.143 107.703 131.922 107.725C131.7 107.747 131.479 107.763 131.256 107.774C131.034 107.785 130.812 107.79 130.589 107.79C130.367 107.79 130.144 107.785 129.922 107.773C129.7 107.762 129.478 107.746 129.257 107.724C129.035 107.702 128.815 107.675 128.595 107.642C128.375 107.609 128.156 107.571 127.937 107.528C127.719 107.484 127.502 107.435 127.286 107.381C127.07 107.327 126.856 107.268 126.643 107.203C126.43 107.138 126.219 107.068 126.01 106.993C125.8 106.918 125.593 106.838 125.387 106.753C125.182 106.668 124.978 106.577 124.777 106.482C124.576 106.387 124.378 106.287 124.181 106.182C123.985 106.077 123.792 105.967 123.601 105.852C123.41 105.738 123.222 105.619 123.037 105.495C122.853 105.371 122.671 105.243 122.492 105.111C122.313 104.978 122.138 104.841 121.967 104.7C121.795 104.559 121.626 104.413 121.461 104.264C121.297 104.114 121.135 103.961 120.978 103.803C116.989 99.8136 116.002 93.9399 118.019 89.0243L99.6884 70.6936V118.931C101.028 119.594 102.228 120.451 103.29 121.502C103.448 121.66 103.601 121.821 103.75 121.985C103.9 122.15 104.045 122.319 104.186 122.491C104.327 122.663 104.464 122.837 104.596 123.016C104.729 123.195 104.857 123.377 104.98 123.562C105.104 123.746 105.223 123.934 105.337 124.125C105.451 124.316 105.561 124.509 105.666 124.705C105.771 124.902 105.871 125.1 105.966 125.301C106.061 125.502 106.151 125.705 106.236 125.911C106.321 126.116 106.401 126.324 106.476 126.533C106.551 126.743 106.621 126.954 106.685 127.167C106.75 127.379 106.809 127.594 106.863 127.809C106.917 128.025 106.966 128.242 107.009 128.46C107.053 128.678 107.091 128.897 107.123 129.117C107.156 129.337 107.183 129.558 107.205 129.779C107.227 130 107.243 130.222 107.254 130.445C107.265 130.667 107.27 130.889 107.27 131.111C107.27 131.334 107.265 131.556 107.254 131.778C107.243 132 107.227 132.222 107.205 132.443C107.183 132.664 107.156 132.885 107.123 133.105C107.091 133.325 107.053 133.544 107.009 133.762C106.966 133.98 106.917 134.197 106.863 134.413C106.809 134.628 106.75 134.843 106.685 135.056C106.621 135.268 106.551 135.48 106.476 135.689C106.401 135.898 106.321 136.106 106.236 136.311C106.151 136.517 106.061 136.72 105.966 136.921C105.871 137.122 105.771 137.32 105.666 137.517C105.561 137.713 105.451 137.906 105.337 138.097C105.223 138.288 105.104 138.476 104.98 138.66C104.857 138.845 104.729 139.027 104.596 139.206C104.464 139.385 104.327 139.56 104.186 139.732C104.045 139.904 103.9 140.072 103.75 140.237C103.601 140.402 103.448 140.562 103.29 140.72C103.133 140.877 102.972 141.03 102.807 141.18C102.642 141.329 102.474 141.474 102.302 141.615C102.13 141.757 101.955 141.893 101.777 142.026C101.598 142.158 101.416 142.286 101.231 142.409C101.046 142.533 100.858 142.652 100.668 142.767C100.477 142.881 100.284 142.991 100.087 143.095C99.891 143.2 99.6928 143.3 99.4917 143.395C99.2906 143.49 99.0875 143.58 98.882 143.665C98.6765 143.75 98.469 143.831 98.2596 143.905C98.0502 143.981 97.8389 144.05 97.6261 144.115C97.4133 144.179 97.1991 144.239 96.9834 144.293C96.7676 144.346 96.551 144.396 96.3328 144.439C96.1147 144.482 95.8956 144.52 95.6755 144.553C95.4554 144.585 95.2349 144.613 95.0138 144.635C94.7923 144.656 94.5707 144.672 94.3482 144.684C94.1262 144.694 93.9042 144.7 93.6817 144.7C93.4592 144.7 93.2371 144.694 93.0146 144.684C92.7926 144.672 92.5711 144.656 92.3495 144.635C92.1285 144.613 91.9079 144.585 91.6878 144.553C91.4678 144.52 91.2486 144.482 91.0305 144.439C90.8124 144.396 90.5957 144.346 90.38 144.293C90.1643 144.239 89.95 144.179 89.7372 144.115C89.5244 144.05 89.3131 143.98 89.1037 143.905C88.8943 143.831 88.6869 143.75 88.4814 143.665C88.2759 143.58 88.0728 143.49 87.8717 143.395C87.6705 143.3 87.4723 143.2 87.276 143.095C87.0798 142.991 86.8864 142.881 86.6955 142.767C86.505 142.652 86.317 142.533 86.1319 142.409C85.9473 142.286 85.7656 142.158 85.5868 142.026C85.408 141.893 85.2331 141.757 85.0611 141.615C84.8892 141.474 84.7206 141.329 84.5559 141.18C84.3912 141.03 84.2304 140.877 84.073 140.72C83.9156 140.563 83.762 140.402 83.6124 140.237C83.4628 140.072 83.3175 139.904 83.1761 139.732C83.0352 139.561 82.8982 139.385 82.7656 139.206C82.633 139.028 82.5047 138.846 82.3808 138.661C82.2574 138.477 82.1379 138.289 82.0238 138.098C81.9091 137.907 81.7993 137.714 81.6944 137.518C81.5894 137.322 81.4893 137.123 81.3941 136.922C81.2989 136.721 81.2085 136.518 81.1235 136.312C81.0385 136.107 80.9583 135.899 80.883 135.69C80.8082 135.481 80.7383 135.269 80.6736 135.056C80.609 134.844 80.5498 134.629 80.4953 134.414C80.4414 134.198 80.3928 133.981 80.3491 133.763C80.3059 133.545 80.2675 133.325 80.2349 133.105C80.2024 132.885 80.1752 132.665 80.1533 132.443C80.1315 132.222 80.1149 132 80.1042 131.778C80.0931 131.556 80.0877 131.334 80.0877 131.111C80.0877 130.889 80.0931 130.667 80.1042 130.444C80.1149 130.222 80.1315 130 80.1533 129.779C80.1752 129.557 80.2024 129.337 80.2349 129.117C80.2675 128.897 80.3059 128.678 80.3491 128.459C80.3928 128.241 80.4414 128.024 80.4953 127.808C80.5498 127.593 80.609 127.378 80.6736 127.166C80.7383 126.953 80.8082 126.742 80.883 126.532C80.9583 126.323 81.0385 126.115 81.1235 125.91C81.2085 125.704 81.2989 125.501 81.3941 125.3C81.4893 125.099 81.5894 124.901 81.6944 124.704C81.7993 124.508 81.9091 124.315 82.0238 124.124C82.1379 123.933 82.2574 123.745 82.3808 123.561C82.5047 123.376 82.633 123.194 82.7656 123.016C82.8982 122.837 83.0352 122.662 83.1761 122.49C83.3175 122.318 83.4628 122.15 83.6124 121.985C83.762 121.821 83.9156 121.659 84.073 121.502C85.3862 120.195 86.8436 119.203 88.5227 118.538V69.8516C86.9044 69.1865 85.3862 68.2056 84.073 66.8871C83.8359 66.6505 83.608 66.4052 83.3894 66.1521C83.1708 65.8985 82.9619 65.6371 82.7622 65.3684C82.563 65.0993 82.3736 64.8233 82.1948 64.5406C82.0155 64.2578 81.8474 63.9688 81.6895 63.6734C81.5321 63.378 81.3854 63.0773 81.2503 62.7707C81.1148 62.4646 80.9909 62.1542 80.8787 61.8384C80.7659 61.5231 80.6654 61.2044 80.577 60.8813C80.4881 60.5587 80.4113 60.2327 80.3467 59.9043C80.2821 59.5759 80.2296 59.2455 80.1893 58.9132C80.1489 58.5809 80.1208 58.2476 80.1052 57.9129C80.0897 57.5787 80.0868 57.2439 80.096 56.9097C80.1047 56.5749 80.1266 56.2407 80.1601 55.9079C80.1941 55.5746 80.2403 55.2433 80.2986 54.9139C80.3569 54.584 80.4273 54.2571 80.5099 53.9325C80.5925 53.608 80.6872 53.2873 80.7936 52.9696C80.8996 52.6524 81.0176 52.3395 81.1473 52.0305L61.0321 31.9265L7.94574 84.957C7.81359 85.0891 7.68485 85.2247 7.55902 85.3631C7.43319 85.5016 7.31125 85.643 7.19271 85.7873C7.07368 85.932 6.95902 86.0792 6.84728 86.2294C6.73603 86.3795 6.62817 86.532 6.52421 86.6875C6.42024 86.843 6.32016 87.0009 6.22397 87.1612C6.12777 87.3215 6.03595 87.4843 5.94753 87.6489C5.85959 87.8136 5.77506 87.9808 5.69538 88.1498C5.61522 88.3184 5.53943 88.4894 5.46802 88.6624C5.39612 88.8349 5.32907 89.0093 5.26591 89.1851C5.20276 89.3615 5.14446 89.5388 5.09004 89.7176C5.03563 89.8964 4.98559 90.0766 4.94041 90.2578C4.89474 90.4395 4.85393 90.6217 4.81749 90.8049C4.78106 90.9885 4.74899 91.1727 4.7213 91.3578C4.69409 91.5424 4.67126 91.728 4.6528 91.914C4.63434 92.1001 4.62073 92.2867 4.6115 92.4732C4.60227 92.6598 4.5979 92.8468 4.5979 93.0339C4.5979 93.2209 4.60227 93.4075 4.6115 93.594C4.62073 93.7811 4.63434 93.9676 4.6528 94.1532C4.67126 94.3393 4.69409 94.5249 4.7213 94.71C4.74899 94.8951 4.78106 95.0792 4.81749 95.2624C4.85393 95.4455 4.89474 95.6282 4.94041 95.8094C4.98559 95.9906 5.03563 96.1708 5.09004 96.3496C5.14446 96.5289 5.20276 96.7062 5.26591 96.8821C5.32907 97.058 5.39612 97.2324 5.46802 97.4053C5.53943 97.5778 5.61522 97.7488 5.69538 97.9179C5.77506 98.087 5.85959 98.2536 5.94753 98.4183C6.03595 98.5835 6.12777 98.7457 6.22397 98.9061C6.32016 99.0664 6.42024 99.2243 6.52421 99.3797C6.62817 99.5352 6.73603 99.6882 6.84728 99.8384C6.95902 99.9885 7.07368 100.136 7.19271 100.28C7.31125 100.424 7.43319 100.566 7.55902 100.705C7.68485 100.843 7.81359 100.978 7.94574 101.11L85.3696 178.523C85.5018 178.655 85.6369 178.784 85.7753 178.909C85.9138 179.035 86.0552 179.157 86.1999 179.276C86.3442 179.394 86.4914 179.509 86.6415 179.62C86.7917 179.732 86.9442 179.84 87.0997 179.944C87.2551 180.047 87.413 180.147 87.5729 180.243C87.7332 180.339 87.896 180.431 88.0606 180.52C88.2253 180.608 88.3925 180.692 88.5615 180.771C88.7301 180.852 88.9011 180.927 89.0736 180.999C89.2461 181.07 89.4205 181.138 89.5963 181.2C89.7727 181.264 89.95 181.322 90.1288 181.376C90.3076 181.431 90.4874 181.481 90.6691 181.526C90.8503 181.572 91.0325 181.612 91.2156 181.649C91.3988 181.685 91.5829 181.717 91.768 181.745C91.9526 181.772 92.1382 181.795 92.3243 181.813C92.5099 181.831 92.6964 181.846 92.883 181.854C93.0695 181.864 93.2566 181.868 93.4431 181.868C93.6302 181.868 93.8172 181.864 94.0038 181.854C94.1903 181.846 94.3764 181.831 94.5625 181.813C94.7486 181.795 94.9341 181.772 95.1188 181.745C95.3038 181.717 95.488 181.685 95.6711 181.649C95.8543 181.612 96.0365 181.572 96.2177 181.526C96.3994 181.481 96.5791 181.431 96.7579 181.376C96.9367 181.322 97.114 181.264 97.2904 181.2C97.4663 181.138 97.6402 181.07 97.8131 180.999C97.9856 180.927 98.1566 180.852 98.3252 180.771C98.4943 180.692 98.6614 180.608 98.8261 180.52C98.9908 180.431 99.1535 180.339 99.3134 180.243C99.4737 180.147 99.6316 180.047 99.7871 179.944C99.9425 179.84 100.095 179.732 100.245 179.62C100.395 179.509 100.543 179.394 100.687 179.276C100.832 179.157 100.973 179.035 101.111 178.909C101.25 178.784 101.385 178.655 101.517 178.523L178.581 101.581C178.713 101.449 178.842 101.314 178.968 101.175C179.093 101.037 179.215 100.896 179.334 100.751C179.453 100.606 179.568 100.459 179.679 100.309C179.791 100.159 179.898 100.006 180.002 99.851C180.106 99.6955 180.206 99.5376 180.302 99.3773C180.398 99.217 180.491 99.0542 180.579 98.8895C180.667 98.7248 180.751 98.5577 180.831 98.3887C180.911 98.2196 180.987 98.0491 181.059 97.8761C181.13 97.7036 181.198 97.5292 181.26 97.3534C181.324 97.177 181.382 96.9997 181.437 96.8209C181.491 96.6421 181.541 96.4619 181.586 96.2806C181.632 96.0989 181.673 95.9168 181.709 95.7336C181.746 95.55 181.778 95.3658 181.805 95.1807C181.833 94.9961 181.855 94.8105 181.874 94.6245C181.892 94.4384 181.906 94.2518 181.915 94.0653C181.924 93.8787 181.929 93.6917 181.929 93.5046C181.929 93.3176 181.924 93.131 181.915 92.944C181.906 92.7574 181.892 92.5709 181.874 92.3848C181.855 92.1987 181.833 92.0136 181.805 91.8285C181.778 91.6434 181.746 91.4593 181.709 91.2761C181.673 91.0925 181.632 90.9103 181.586 90.7291C181.541 90.5479 181.491 90.3676 181.437 90.1889C181.382 90.0096 181.324 89.8323 181.26 89.6564C181.198 89.4805 181.13 89.3061 181.059 89.1332C180.987 88.9607 180.911 88.7897 180.831 88.6206C180.751 88.4515 180.667 88.2849 180.579 88.1197C180.491 87.955 180.398 87.7923 180.302 87.632C180.206 87.4716 180.106 87.3142 180.002 87.1588C179.898 87.0033 179.791 86.8503 179.679 86.7001C179.568 86.55 179.453 86.4028 179.334 86.2585C179.215 86.1142 179.093 85.9724 178.968 85.8339C178.842 85.6954 178.713 85.5604 178.581 85.4282" fill="#F03C2E"/>
</g>
</svg>
