<svg width="244" height="127" viewBox="0 0 244 127" fill="none" xmlns="http://www.w3.org/2000/svg">
<path d="M126.035 114.521C126.035 116.162 125.742 117.686 125.156 119.092C124.57 120.498 123.75 121.729 122.695 122.783C121.699 123.779 120.498 124.57 119.092 125.156C117.686 125.742 116.162 126.035 114.521 126.035H32.0801C29.9707 126.035 27.6855 125.801 25.2246 125.332C22.8223 124.805 20.4199 124.014 18.0176 122.959C15.6738 121.904 13.418 120.557 11.25 118.916C9.08203 117.217 7.14844 115.195 5.44922 112.852C3.80859 110.449 2.49023 107.695 1.49414 104.59C0.498047 101.426 0 97.8809 0 93.9551V32.0801C0 29.9707 0.234375 27.7148 0.703125 25.3125C1.23047 22.8516 2.02148 20.4492 3.07617 18.1055C4.13086 15.7031 5.50781 13.418 7.20703 11.25C8.90625 9.08203 10.9277 7.17773 13.2715 5.53711C15.6738 3.83789 18.4277 2.49023 21.5332 1.49414C24.6387 0.498047 28.1543 0 32.0801 0H124.98V22.8516H32.0801C29.0918 22.8516 26.8066 23.6426 25.2246 25.2246C23.6426 26.8066 22.8516 29.1504 22.8516 32.2559V93.9551C22.8516 96.8848 23.6426 99.1699 25.2246 100.811C26.8652 102.393 29.1504 103.184 32.0801 103.184H103.184V74.5312H42.3633V51.5039H114.521C116.162 51.5039 117.686 51.8262 119.092 52.4707C120.498 53.0566 121.699 53.877 122.695 54.9316C123.75 55.9863 124.57 57.2168 125.156 58.623C125.742 59.9707 126.035 61.4355 126.035 63.0176V114.521ZM238.001 42.3633C238.001 47.5781 237.356 52.2363 236.067 56.3379C234.778 60.4395 233.02 64.0723 230.794 67.2363C228.626 70.3418 226.106 73.0078 223.235 75.2344C220.364 77.4609 217.346 79.3066 214.182 80.7715C211.077 82.1777 207.913 83.2031 204.69 83.8477C201.526 84.4922 198.538 84.8145 195.725 84.8145L243.45 126.035H208.118L160.481 84.8145H144.046V61.9629H195.725C198.596 61.7285 201.204 61.1426 203.548 60.2051C205.95 59.209 208.001 57.8906 209.7 56.25C211.458 54.6094 212.805 52.6465 213.743 50.3613C214.68 48.0176 215.149 45.3516 215.149 42.3633V27.9492C215.149 26.6602 214.973 25.6934 214.622 25.0488C214.329 24.3457 213.919 23.8477 213.391 23.5547C212.923 23.2031 212.395 22.998 211.809 22.9395C211.282 22.8809 210.784 22.8516 210.315 22.8516H134.905V126.035H112.054V11.5137C112.054 9.93164 112.346 8.4375 112.932 7.03125C113.518 5.625 114.309 4.39453 115.305 3.33984C116.36 2.28516 117.591 1.46484 118.997 0.878906C120.403 0.292969 121.927 0 123.567 0H210.315C215.413 0 219.72 0.9375 223.235 2.8125C226.751 4.62891 229.593 6.94336 231.761 9.75586C233.987 12.5098 235.569 15.498 236.507 18.7207C237.503 21.9434 238.001 24.9609 238.001 27.7734V42.3633Z" fill="white"/>
</svg>
