<svg width="75" height="34" viewBox="0 0 75 34" fill="none" xmlns="http://www.w3.org/2000/svg">
<path d="M33.6094 30.5391C33.6094 30.9766 33.5312 31.3828 33.375 31.7578C33.2188 32.1328 33 32.4609 32.7188 32.7422C32.4531 33.0078 32.1328 33.2188 31.7578 33.375C31.3828 33.5312 30.9766 33.6094 30.5391 33.6094H8.55469C7.99219 33.6094 7.38281 33.5469 6.72656 33.4219C6.08594 33.2812 5.44531 33.0703 4.80469 32.7891C4.17969 32.5078 3.57812 32.1484 3 31.7109C2.42188 31.2578 1.90625 30.7188 1.45312 30.0938C1.01562 29.4531 0.664062 28.7188 0.398438 27.8906C0.132812 27.0469 0 26.1016 0 25.0547V8.55469C0 7.99219 0.0625 7.39062 0.1875 6.75C0.328125 6.09375 0.539062 5.45312 0.820312 4.82812C1.10156 4.1875 1.46875 3.57812 1.92188 3C2.375 2.42187 2.91406 1.91406 3.53906 1.47656C4.17969 1.02344 4.91406 0.664062 5.74219 0.398438C6.57031 0.132813 7.50781 0 8.55469 0H33.3281V6.09375H8.55469C7.75781 6.09375 7.14844 6.30469 6.72656 6.72656C6.30469 7.14844 6.09375 7.77344 6.09375 8.60156V25.0547C6.09375 25.8359 6.30469 26.4453 6.72656 26.8828C7.16406 27.3047 7.77344 27.5156 8.55469 27.5156H27.5156V19.875H11.2969V13.7344H30.5391C30.9766 13.7344 31.3828 13.8203 31.7578 13.9922C32.1328 14.1484 32.4531 14.3672 32.7188 14.6484C33 14.9297 33.2188 15.2578 33.375 15.6328C33.5312 15.9922 33.6094 16.3828 33.6094 16.8047V30.5391ZM73.5469 11.2969C73.5469 12.6875 73.375 13.9297 73.0312 15.0234C72.6875 16.1172 72.2188 17.0859 71.625 17.9297C71.0469 18.7578 70.375 19.4688 69.6094 20.0625C68.8438 20.6562 68.0391 21.1484 67.1953 21.5391C66.3672 21.9141 65.5234 22.1875 64.6641 22.3594C63.8203 22.5312 63.0234 22.6172 62.2734 22.6172L75 33.6094H65.5781L52.875 22.6172H48.4922V16.5234H62.2734C63.0391 16.4609 63.7344 16.3047 64.3594 16.0547C65 15.7891 65.5469 15.4375 66 15C66.4688 14.5625 66.8281 14.0391 67.0781 13.4297C67.3281 12.8047 67.4531 12.0938 67.4531 11.2969V7.45312C67.4531 7.10938 67.4062 6.85156 67.3125 6.67969C67.2344 6.49219 67.125 6.35938 66.9844 6.28125C66.8594 6.1875 66.7188 6.13281 66.5625 6.11719C66.4219 6.10156 66.2891 6.09375 66.1641 6.09375H46.0547V33.6094H39.9609V3.07031C39.9609 2.64844 40.0391 2.25 40.1953 1.875C40.3516 1.5 40.5625 1.17188 40.8281 0.890625C41.1094 0.609375 41.4375 0.390625 41.8125 0.234375C42.1875 0.078125 42.5938 0 43.0312 0H66.1641C67.5234 0 68.6719 0.25 69.6094 0.75C70.5469 1.23438 71.3047 1.85156 71.8828 2.60156C72.4766 3.33594 72.8984 4.13281 73.1484 4.99219C73.4141 5.85156 73.5469 6.65625 73.5469 7.40625V11.2969Z" fill="white"/>
</svg>
