<svg width="128" height="128" viewBox="0 0 128 128" fill="none" xmlns="http://www.w3.org/2000/svg">
<path d="M19.0372 113.876L9.03223 1.66113H118.968L108.952 113.859L63.9332 126.339L19.0372 113.876Z" fill="#E44D26"/>
<path d="M64 116.8L100.378 106.714L108.937 10.8359H64V116.8Z" fill="#F16529"/>
<path d="M63.9998 52.4546H45.7878L44.5298 38.3606H63.9998V24.5986H29.4888L29.8188 28.2906L33.2008 66.2176H63.9998V52.4546ZM63.9998 88.1976L63.9388 88.2146L48.6118 84.0746L47.6328 73.0996H33.8158L35.7438 94.7086L63.9368 102.535L63.9998 102.518V88.1976Z" fill="#EBEBEB"/>
<path d="M63.9521 52.4546V66.2176H80.8992L79.3022 84.0666L63.9521 88.2096V102.529L92.1671 94.7086L92.3741 92.3836L95.6082 56.1506L95.9431 52.4546H92.2351H63.9521ZM63.9521 24.5986V38.3606H97.1961L97.4721 35.2686L98.1001 28.2906L98.4291 24.5986H63.9521Z" fill="white"/>
</svg>
